<?xml version="1.0" standalone="no"?>
<!DOCTYPE svg PUBLIC "-//W3C//DTD SVG 20010904//EN"
 "http://www.w3.org/TR/2001/REC-SVG-20010904/DTD/svg10.dtd">
<svg version="1.0" xmlns="http://www.w3.org/2000/svg"
 width="1022.000000pt" height="244.000000pt" viewBox="0 0 1022.000000 244.000000"
 preserveAspectRatio="xMidYMid meet">

<g transform="translate(0.000000,244.000000) scale(0.100000,-0.100000)"
fill="#4d4ae8" stroke="none">
<path d="M1550 1874 l0 -348 33 30 c100 94 657 626 661 633 3 5 -76 11 -177
15 -100 3 -257 9 -349 12 l-168 7 0 -349z"/>
<path d="M1365 2038 c-71 -78 -217 -233 -323 -345 l-193 -203 325 0 326 0 0
345 c0 190 -1 345 -2 344 -2 0 -61 -64 -133 -141z"/>
<path d="M2115 1982 c-60 -57 -104 -101 -96 -97 7 4 76 45 152 90 l139 83 -42
15 -43 14 -110 -105z"/>
<path d="M440 1750 l0 -260 163 0 162 0 78 78 78 78 -167 182 -166 182 -74 0
-74 0 0 -260z"/>
<path d="M307 1900 l-78 -70 81 0 80 0 0 70 c0 39 -1 70 -3 70 -1 0 -37 -31
-80 -70z"/>
<path d="M6770 1629 c-166 -33 -305 -182 -315 -336 l-4 -58 9 60 c34 209 230
355 438 325 33 -4 79 -18 103 -29 24 -12 33 -19 19 -16 -104 23 -152 27 -205
17 -244 -49 -378 -274 -311 -523 4 -14 -2 -8 -14 14 -11 21 -25 63 -30 95 l-9
57 4 -55 c2 -30 13 -77 24 -104 30 -68 150 -190 226 -228 155 -79 356 -43 469
83 163 181 133 432 -70 605 -95 80 -223 116 -334 93z m267 -122 c36 -19 61
-41 84 -77 18 -27 34 -50 36 -50 2 0 1 5 -3 12 -4 7 -3 8 5 4 21 -13 50 -83
59 -140 25 -161 -66 -320 -216 -376 -81 -31 -197 -26 -267 11 -27 15 -50 31
-49 35 0 5 -17 21 -38 36 -78 57 -113 142 -106 257 8 131 79 234 202 292 56
27 69 29 151 26 74 -3 99 -8 142 -30z"/>
<path d="M7161 1360 c0 -8 4 -24 9 -35 5 -13 9 -14 9 -5 0 8 -4 24 -9 35 -5
13 -9 14 -9 5z"/>
<path d="M7182 1246 c-3 -78 -19 -130 -60 -193 -65 -100 -178 -158 -292 -150
-36 3 -76 8 -90 12 -22 6 -23 5 -6 -6 29 -18 139 -23 193 -9 158 42 268 186
260 339 l-3 66 -2 -59z"/>
<path d="M3123 1615 c-191 -59 -306 -255 -274 -464 26 -163 112 -271 259 -322
70 -24 214 -27 284 -6 99 31 183 99 227 185 l20 40 -77 27 c-58 21 -77 24 -81
14 -2 -7 -22 -32 -43 -55 -53 -58 -107 -77 -200 -72 -63 3 -80 8 -120 36 -68
47 -100 106 -106 197 -10 161 74 269 218 282 83 8 144 -11 195 -61 23 -23 47
-49 52 -60 10 -18 12 -18 74 3 94 31 92 29 58 89 -39 69 -126 137 -208 162
-74 23 -212 26 -278 5z"/>
<path d="M7410 1221 l0 -409 79 0 79 0 5 31 c3 18 5 148 4 290 -1 141 1 257 4
257 3 0 84 -126 179 -281 120 -194 182 -284 198 -290 27 -10 105 -12 151 -3
l31 7 0 403 0 404 -85 0 -85 0 0 -286 c0 -157 -3 -283 -7 -281 -5 3 -87 131
-183 286 l-175 280 -97 1 -98 0 0 -409z"/>
<path d="M8550 1313 c5 -304 6 -320 27 -359 30 -55 94 -110 155 -130 58 -19
193 -22 254 -5 55 15 124 63 153 106 43 64 51 128 51 428 l0 277 -85 0 -85 0
0 -277 c0 -251 -2 -282 -19 -320 -27 -58 -61 -78 -136 -78 -70 0 -105 18 -132
68 -16 28 -18 67 -21 320 l-3 287 -82 0 -82 0 5 -317z"/>
<path d="M9250 1560 l0 -70 190 0 c105 0 190 -4 190 -9 0 -5 -85 -126 -190
-270 l-190 -261 0 -68 0 -69 295 1 295 1 0 73 0 72 -190 0 c-104 0 -190 4
-190 9 0 4 66 100 147 212 255 354 233 318 233 388 l0 61 -295 0 -295 0 0 -70z"/>
<path d="M3730 1215 l0 -405 80 0 80 0 0 145 0 145 73 0 c87 0 190 16 226 35
176 91 168 377 -13 461 -48 22 -62 24 -248 24 l-198 0 0 -405z m329 266 c61
-12 93 -47 98 -108 8 -98 -47 -137 -190 -131 l-72 3 -3 109 c-1 61 0 116 2
123 6 15 95 17 165 4z"/>
<path d="M4341 1583 c13 -21 71 -112 129 -203 l105 -165 5 -200 5 -200 80 0
80 0 5 200 5 200 113 178 c62 97 118 177 124 177 5 0 8 -18 6 -42 l-3 -43 98
-3 97 -3 0 -334 0 -335 80 0 80 0 2 333 3 332 98 3 97 3 0 69 0 70 -359 0
-359 0 -83 -135 c-45 -75 -84 -133 -88 -130 -3 4 -40 63 -83 133 l-76 127 -92
3 -92 3 23 -38z"/>
<path d="M5622 1218 l3 -403 80 0 80 0 3 168 2 167 170 0 170 0 2 -167 3 -168
83 -3 82 -3 0 406 0 405 -85 0 -85 0 0 -165 0 -165 -170 0 -170 0 0 165 0 165
-85 0 -85 0 2 -402z"/>
<path d="M541 1372 c30 -31 173 -183 319 -337 146 -153 283 -299 306 -323 l40
-45 83 229 c46 126 105 288 131 359 26 72 51 140 55 153 l6 22 -497 0 -497 0
54 -58z"/>
<path d="M1438 1142 c-31 -86 -102 -280 -157 -431 -56 -151 -101 -279 -101
-285 0 -6 72 -50 160 -97 l160 -87 0 529 c0 291 -1 529 -2 529 -2 0 -29 -71
-60 -158z"/>
<path d="M8314 980 c-47 -19 -68 -85 -43 -132 6 -11 26 -26 45 -34 88 -37 165
69 102 140 -26 28 -72 39 -104 26z"/>
</g>
</svg>
