<?xml version="1.0" standalone="no"?>
<!DOCTYPE svg PUBLIC "-//W3C//DTD SVG 20010904//EN"
 "http://www.w3.org/TR/2001/REC-SVG-20010904/DTD/svg10.dtd">
<svg version="1.0" xmlns="http://www.w3.org/2000/svg"
 width="78.000000pt" height="71.000000pt" viewBox="0 0 78.000000 71.000000"
 preserveAspectRatio="xMidYMid meet">

<g transform="translate(0.000000,71.000000) scale(0.100000,-0.100000)"
fill="#4d4ae8" stroke="none">
<path d="M500 556 l0 -108 88 80 c48 44 98 91 111 105 l23 26 -111 3 -111 3 0
-109z"/>
<path d="M430 595 c-33 -34 -44 -52 -42 -70 2 -17 -1 -25 -11 -25 -9 0 -17 5
-19 10 -2 6 -21 -10 -44 -35 l-40 -45 103 0 103 0 0 105 c0 58 -1 105 -3 105
-2 0 -23 -20 -47 -45z"/>
<path d="M689 594 l-24 -26 38 22 c40 23 45 30 24 30 -8 0 -24 -12 -38 -26z"/>
<path d="M140 515 l0 -85 53 0 c44 0 58 4 76 24 l23 25 -52 60 c-37 42 -60 61
-76 61 -23 0 -24 -2 -24 -85z"/>
<path d="M95 560 c-18 -19 -17 -20 3 -20 15 0 22 6 22 20 0 11 -2 20 -3 20 -2
0 -12 -9 -22 -20z"/>
<path d="M250 313 c52 -54 104 -108 115 -121 l22 -23 41 113 c23 62 42 116 42
121 0 4 -71 7 -157 7 l-157 0 94 -97z"/>
<path d="M432 229 c-24 -66 -45 -125 -48 -132 -4 -12 83 -63 92 -54 3 2 3 72
2 155 l-3 151 -43 -120z"/>
</g>
</svg>
