<svg xmlns="http://www.w3.org/2000/svg" viewBox="0 0 960 540" role="img" aria-label="A tactile four by four memory grid with a blue and mint sequence">
  <defs>
    <linearGradient id="back" x1="0" y1="0" x2="1" y2="1"><stop stop-color="#D9F2F5"/><stop offset=".6" stop-color="#C6E2F2"/><stop offset="1" stop-color="#B4D5ED"/></linearGradient>
    <radialGradient id="bloom" cx="0" cy="0" r="1" gradientTransform="matrix(394 0 0 264 734 66)" gradientUnits="userSpaceOnUse"><stop stop-color="#B1F4E5" stop-opacity=".8"/><stop offset="1" stop-color="#B1F4E5" stop-opacity="0"/></radialGradient>
    <linearGradient id="board" x1="0" y1="0" x2=".8" y2="1"><stop stop-color="#FBFDFF"/><stop offset="1" stop-color="#D7EAF5"/></linearGradient>
    <linearGradient id="tile" x1="0" y1="0" x2="0" y2="1"><stop stop-color="#F8FDFF"/><stop offset="1" stop-color="#E1F1F8"/></linearGradient>
    <linearGradient id="active" x1="0" y1="0" x2="1" y2="1"><stop stop-color="#5FB3FA"/><stop offset="1" stop-color="#287BDD"/></linearGradient>
    <linearGradient id="mint" x1="0" y1="0" x2="1" y2="1"><stop stop-color="#87E5E2"/><stop offset="1" stop-color="#28B6C1"/></linearGradient>
    <filter id="shadow" x="-20%" y="-30%" width="140%" height="170%"><feDropShadow dx="0" dy="19" stdDeviation="24" flood-color="#447696" flood-opacity=".27"/></filter>
    <filter id="soft" x="-100%" y="-100%" width="300%" height="300%"><feGaussianBlur stdDeviation="18"/></filter>
  </defs>
  <rect width="960" height="540" fill="url(#back)"/>
  <rect width="960" height="540" fill="url(#bloom)"/>
  <circle cx="87" cy="112" r="160" fill="#9DC9E9" opacity=".22"/>
  <path d="M0 446H960M89 0V540M872 0V540" stroke="#FFFFFF" stroke-opacity=".38" stroke-width="2"/>
  <circle cx="846" cy="433" r="121" fill="none" stroke="#FFFFFF" stroke-opacity=".34" stroke-width="2"/>
  <circle cx="846" cy="433" r="84" fill="none" stroke="#FFFFFF" stroke-opacity=".34" stroke-width="2"/>
  <rect x="203" y="49" width="554" height="440" rx="25" fill="#7BABC6" opacity=".52"/>
  <rect x="203" y="43" width="554" height="440" rx="25" fill="url(#board)" stroke="#FFFFFF" stroke-width="3" filter="url(#shadow)"/>
  <rect x="223" y="64" width="514" height="402" rx="17" fill="#E9F5FA" stroke="#B9D4E1" stroke-opacity=".6"/>
  <circle cx="660" cy="320" r="55" fill="#70E5DA" opacity=".27" filter="url(#soft)"/>
  <g><rect x="246" y="86" width="108" height="86" rx="13" fill="#AAC9D6" opacity=".75"/><rect x="246" y="81" width="108" height="86" rx="13" fill="url(#tile)" stroke="#B9D3DF" stroke-width="2"/><path d="M259 88h82" stroke="#FFFFFF" stroke-opacity=".82" stroke-width="3" stroke-linecap="round"/><text x="300" y="129" font-family="Arial, sans-serif" font-size="27" font-weight="700" text-anchor="middle" dominant-baseline="middle" fill="#34556A">1</text></g>
  <g><rect x="366" y="86" width="108" height="86" rx="13" fill="#3873A6" opacity=".67"/><rect x="366" y="81" width="108" height="86" rx="13" fill="url(#active)" stroke="#7AD0F1" stroke-width="2"/><path d="M379 88h82" stroke="#FFFFFF" stroke-opacity=".42" stroke-width="3" stroke-linecap="round"/><text x="420" y="129" font-family="Arial, sans-serif" font-size="27" font-weight="700" text-anchor="middle" dominant-baseline="middle" fill="#F6FDFF">2</text></g>
  <g><rect x="486" y="86" width="108" height="86" rx="13" fill="#AAC9D6" opacity=".75"/><rect x="486" y="81" width="108" height="86" rx="13" fill="url(#tile)" stroke="#B9D3DF" stroke-width="2"/><path d="M499 88h82" stroke="#FFFFFF" stroke-opacity=".82" stroke-width="3" stroke-linecap="round"/><text x="540" y="129" font-family="Arial, sans-serif" font-size="27" font-weight="700" text-anchor="middle" dominant-baseline="middle" fill="#34556A">3</text></g>
  <g><rect x="606" y="86" width="108" height="86" rx="13" fill="#AAC9D6" opacity=".75"/><rect x="606" y="81" width="108" height="86" rx="13" fill="url(#tile)" stroke="#B9D3DF" stroke-width="2"/><path d="M619 88h82" stroke="#FFFFFF" stroke-opacity=".82" stroke-width="3" stroke-linecap="round"/><text x="660" y="129" font-family="Arial, sans-serif" font-size="27" font-weight="700" text-anchor="middle" dominant-baseline="middle" fill="#34556A">4</text></g>
  <g><rect x="246" y="184" width="108" height="86" rx="13" fill="#AAC9D6" opacity=".75"/><rect x="246" y="179" width="108" height="86" rx="13" fill="url(#tile)" stroke="#B9D3DF" stroke-width="2"/><path d="M259 186h82" stroke="#FFFFFF" stroke-opacity=".82" stroke-width="3" stroke-linecap="round"/><text x="300" y="227" font-family="Arial, sans-serif" font-size="27" font-weight="700" text-anchor="middle" dominant-baseline="middle" fill="#34556A">5</text></g>
  <g><rect x="366" y="184" width="108" height="86" rx="13" fill="#3873A6" opacity=".67"/><rect x="366" y="179" width="108" height="86" rx="13" fill="url(#active)" stroke="#7AD0F1" stroke-width="2"/><path d="M379 186h82" stroke="#FFFFFF" stroke-opacity=".42" stroke-width="3" stroke-linecap="round"/><text x="420" y="227" font-family="Arial, sans-serif" font-size="27" font-weight="700" text-anchor="middle" dominant-baseline="middle" fill="#F6FDFF">6</text></g>
  <g><rect x="486" y="184" width="108" height="86" rx="13" fill="#3873A6" opacity=".67"/><rect x="486" y="179" width="108" height="86" rx="13" fill="url(#active)" stroke="#7AD0F1" stroke-width="2"/><path d="M499 186h82" stroke="#FFFFFF" stroke-opacity=".42" stroke-width="3" stroke-linecap="round"/><text x="540" y="227" font-family="Arial, sans-serif" font-size="27" font-weight="700" text-anchor="middle" dominant-baseline="middle" fill="#F6FDFF">7</text></g>
  <g><rect x="606" y="184" width="108" height="86" rx="13" fill="#AAC9D6" opacity=".75"/><rect x="606" y="179" width="108" height="86" rx="13" fill="url(#tile)" stroke="#B9D3DF" stroke-width="2"/><path d="M619 186h82" stroke="#FFFFFF" stroke-opacity=".82" stroke-width="3" stroke-linecap="round"/><text x="660" y="227" font-family="Arial, sans-serif" font-size="27" font-weight="700" text-anchor="middle" dominant-baseline="middle" fill="#34556A">8</text></g>
  <g><rect x="246" y="282" width="108" height="86" rx="13" fill="#AAC9D6" opacity=".75"/><rect x="246" y="277" width="108" height="86" rx="13" fill="url(#tile)" stroke="#B9D3DF" stroke-width="2"/><path d="M259 284h82" stroke="#FFFFFF" stroke-opacity=".82" stroke-width="3" stroke-linecap="round"/><text x="300" y="325" font-family="Arial, sans-serif" font-size="27" font-weight="700" text-anchor="middle" dominant-baseline="middle" fill="#34556A">9</text></g>
  <g><rect x="366" y="282" width="108" height="86" rx="13" fill="#AAC9D6" opacity=".75"/><rect x="366" y="277" width="108" height="86" rx="13" fill="url(#tile)" stroke="#B9D3DF" stroke-width="2"/><path d="M379 284h82" stroke="#FFFFFF" stroke-opacity=".82" stroke-width="3" stroke-linecap="round"/><text x="420" y="325" font-family="Arial, sans-serif" font-size="27" font-weight="700" text-anchor="middle" dominant-baseline="middle" fill="#34556A">10</text></g>
  <g><rect x="486" y="282" width="108" height="86" rx="13" fill="#3873A6" opacity=".67"/><rect x="486" y="277" width="108" height="86" rx="13" fill="url(#mint)" stroke="#7AD0F1" stroke-width="2"/><path d="M499 284h82" stroke="#FFFFFF" stroke-opacity=".42" stroke-width="3" stroke-linecap="round"/><text x="540" y="325" font-family="Arial, sans-serif" font-size="27" font-weight="700" text-anchor="middle" dominant-baseline="middle" fill="#F6FDFF">11</text></g>
  <g><rect x="606" y="282" width="108" height="86" rx="13" fill="#AAC9D6" opacity=".75"/><rect x="606" y="277" width="108" height="86" rx="13" fill="url(#tile)" stroke="#B9D3DF" stroke-width="2"/><path d="M619 284h82" stroke="#FFFFFF" stroke-opacity=".82" stroke-width="3" stroke-linecap="round"/><text x="660" y="325" font-family="Arial, sans-serif" font-size="27" font-weight="700" text-anchor="middle" dominant-baseline="middle" fill="#34556A">12</text></g>
  <g><rect x="246" y="380" width="108" height="86" rx="13" fill="#AAC9D6" opacity=".75"/><rect x="246" y="375" width="108" height="86" rx="13" fill="url(#tile)" stroke="#B9D3DF" stroke-width="2"/><path d="M259 382h82" stroke="#FFFFFF" stroke-opacity=".82" stroke-width="3" stroke-linecap="round"/><text x="300" y="423" font-family="Arial, sans-serif" font-size="27" font-weight="700" text-anchor="middle" dominant-baseline="middle" fill="#34556A">13</text></g>
  <g><rect x="366" y="380" width="108" height="86" rx="13" fill="#AAC9D6" opacity=".75"/><rect x="366" y="375" width="108" height="86" rx="13" fill="url(#tile)" stroke="#B9D3DF" stroke-width="2"/><path d="M379 382h82" stroke="#FFFFFF" stroke-opacity=".82" stroke-width="3" stroke-linecap="round"/><text x="420" y="423" font-family="Arial, sans-serif" font-size="27" font-weight="700" text-anchor="middle" dominant-baseline="middle" fill="#34556A">14</text></g>
  <g><rect x="486" y="380" width="108" height="86" rx="13" fill="#AAC9D6" opacity=".75"/><rect x="486" y="375" width="108" height="86" rx="13" fill="url(#tile)" stroke="#B9D3DF" stroke-width="2"/><path d="M499 382h82" stroke="#FFFFFF" stroke-opacity=".82" stroke-width="3" stroke-linecap="round"/><text x="540" y="423" font-family="Arial, sans-serif" font-size="27" font-weight="700" text-anchor="middle" dominant-baseline="middle" fill="#34556A">15</text></g>
  <g><rect x="606" y="380" width="108" height="86" rx="13" fill="#AAC9D6" opacity=".75"/><rect x="606" y="375" width="108" height="86" rx="13" fill="url(#tile)" stroke="#B9D3DF" stroke-width="2"/><path d="M619 382h82" stroke="#FFFFFF" stroke-opacity=".82" stroke-width="3" stroke-linecap="round"/><text x="660" y="423" font-family="Arial, sans-serif" font-size="27" font-weight="700" text-anchor="middle" dominant-baseline="middle" fill="#34556A">16</text></g>
  <circle cx="660" cy="320" r="60" fill="none" stroke="#62D8D5" stroke-width="3" stroke-opacity=".55"/>
  <circle cx="660" cy="320" r="69" fill="none" stroke="#7DDBE7" stroke-width="2" stroke-opacity=".32"/>
  <path d="M118 108h47m-47 16h27M795 104h48m-48 16h31" stroke="#FFFFFF" stroke-opacity=".7" stroke-width="4" stroke-linecap="round"/>
  <g fill="#FFFFFF" opacity=".72"><circle cx="105" cy="392" r="5"/><circle cx="105" cy="414" r="5"/><circle cx="105" cy="436" r="5"/></g>
  <path d="M107 515h139M721 24h139" stroke="#FFFFFF" stroke-width="3" stroke-linecap="round" opacity=".58"/>
</svg>
