<svg xmlns="http://www.w3.org/2000/svg" viewBox="0 0 960 540"><rect width="960" height="540" fill="#F0E9DC"/><g fill="#926633" font-family="system-ui, sans-serif" text-anchor="middle"><rect x="279" y="69" width="126" height="126" rx="17" fill="#FFFBF3"/><text x="342" y="150" fill="#926633" font-size="55" font-weight="600">7</text><rect x="417" y="69" width="126" height="126" rx="17" fill="#FFFBF3"/><text x="480" y="150" fill="#926633" font-size="55" font-weight="600">2</text><rect x="555" y="69" width="126" height="126" rx="17" fill="#FFFBF3"/><text x="618" y="150" fill="#926633" font-size="55" font-weight="600">9</text><rect x="279" y="207" width="126" height="126" rx="17" fill="#FFFBF3"/><text x="342" y="288" fill="#926633" font-size="55" font-weight="600">5</text><rect x="417" y="207" width="126" height="126" rx="17" fill="#CB9246"/><text x="480" y="288" fill="#FFF" font-size="55" font-weight="600">1</text><rect x="555" y="207" width="126" height="126" rx="17" fill="#FFFBF3"/><text x="618" y="288" fill="#926633" font-size="55" font-weight="600">8</text><rect x="279" y="345" width="126" height="126" rx="17" fill="#FFFBF3"/><text x="342" y="426" fill="#926633" font-size="55" font-weight="600">3</text><rect x="417" y="345" width="126" height="126" rx="17" fill="#FFFBF3"/><text x="480" y="426" fill="#926633" font-size="55" font-weight="600">6</text><rect x="555" y="345" width="126" height="126" rx="17" fill="#FFFBF3"/><text x="618" y="426" fill="#926633" font-size="55" font-weight="600">4</text></g></svg>